<svg width="59" height="34" viewBox="0 0 59 34" fill="none" xmlns="http://www.w3.org/2000/svg">
<path d="M49.5179 5.26671C52.4272 5.26671 54.7857 7.65452 54.7857 10.6C54.7857 13.5455 52.4272 15.9333 49.5179 15.9333C46.6084 15.9333 44.2499 13.5455 44.2499 10.6C44.2499 7.65452 46.6084 5.26671 49.5179 5.26671ZM7.37503 3.13329C11.4482 3.13329 14.7501 6.47624 14.7501 10.6L14.7099 11.3832L30.3183 19.5782C31.5551 18.6295 33.0966 18.0667 34.7678 18.0667L40.0357 10.6C40.0357 5.29811 44.2809 1 49.5179 1C54.7547 1 59 5.29811 59 10.6C59 15.9019 54.7547 20.2 49.5179 20.2L42.1428 25.5333C42.1428 29.657 38.8409 33 34.7678 33C30.6947 33 27.3929 29.657 27.3929 25.5333C27.3929 25.4399 27.3945 25.3468 27.398 25.2541L11.4026 16.856C10.2447 17.6217 8.86117 18.0667 7.37503 18.0667C3.30191 18.0667 0 14.7238 0 10.6C0 6.47624 3.30191 3.13329 7.37503 3.13329ZM36.9562 23.0634C38.5116 23.8658 39.13 25.7928 38.3375 27.3675C37.5451 28.9421 35.6418 29.5683 34.0864 28.7659L29.5681 26.3936C29.9744 28.9301 32.1478 30.8667 34.7678 30.8667C37.6773 30.8667 40.0357 28.4789 40.0357 25.5333C40.0357 22.5878 37.6771 20.2 34.7678 20.2C33.9537 20.2 33.1828 20.387 32.4945 20.7209L36.9562 23.0634ZM7.37503 5.26671C4.46572 5.26671 2.10723 7.65452 2.10723 10.6C2.10723 13.5455 4.46572 15.9333 7.37503 15.9333C7.97657 15.9333 8.55454 15.8313 9.093 15.6433L5.59559 13.807C4.04025 13.0046 3.42182 11.0778 4.21432 9.50311C5.00683 7.92844 6.91005 7.30231 8.46551 8.10467L12.6343 10.2935C12.4774 7.49054 10.1827 5.26671 7.37503 5.26671ZM49.5179 3.13329C45.4447 3.13329 42.1428 6.47624 42.1428 10.6C42.1428 14.7238 45.4447 18.0667 49.5179 18.0667C53.5909 18.0667 56.8928 14.7238 56.8928 10.6C56.8928 6.47624 53.5909 3.13329 49.5179 3.13329Z" fill="white" fill-opacity="0.05"/>
<path d="M7.5785 14.1488C6.55567 14.1488 5.82042 13.9292 5.37275 13.49C4.92792 13.0508 4.697 12.3283 4.68 11.3225C4.66583 10.3478 4.65733 9.39725 4.6545 8.47075C4.65167 7.54425 4.65167 6.63333 4.6545 5.738C4.66017 4.84267 4.66867 3.95583 4.68 3.0775C4.697 2.07167 4.92792 1.352 5.37275 0.9185C5.81758 0.482166 6.54575 0.264 7.55725 0.264C8.54608 0.264 9.26717 0.479333 9.7205 0.909999C10.1767 1.33783 10.4203 2.06033 10.4515 3.0775C10.4572 3.20783 10.46 3.3665 10.46 3.5535C10.46 3.7405 10.4586 3.93883 10.4558 4.1485C10.4558 4.35817 10.4543 4.565 10.4515 4.769C10.4487 4.97017 10.4444 5.1515 10.4388 5.313H10.0733C10.0789 5.10617 10.0832 4.86108 10.086 4.57775C10.0917 4.29442 10.0931 4.01817 10.0903 3.749C10.0903 3.477 10.0874 3.256 10.0818 3.086C10.0534 2.17367 9.84092 1.52483 9.44425 1.1395C9.05042 0.754166 8.42142 0.561499 7.55725 0.561499C6.66758 0.561499 6.03008 0.756999 5.64475 1.148C5.25942 1.53617 5.06108 2.18075 5.04975 3.08175C5.03558 4.00542 5.02567 4.92908 5.02 5.85275C5.01717 6.77358 5.01717 7.69017 5.02 8.6025C5.02567 9.51483 5.03558 10.4201 5.04975 11.3182C5.06108 12.2221 5.26225 12.8709 5.65325 13.2647C6.04708 13.6557 6.68883 13.8512 7.5785 13.8512C8.45683 13.8512 9.09717 13.6572 9.4995 13.269C9.90183 12.878 10.1186 12.2263 10.1498 11.314C10.1611 10.9825 10.1668 10.6156 10.1668 10.2132C10.1696 9.81092 10.1625 9.40575 10.1455 8.99775H10.511C10.5252 9.36325 10.5323 9.75708 10.5323 10.1792C10.5351 10.5986 10.5308 10.9797 10.5195 11.3225C10.4827 12.334 10.2348 13.0579 9.77575 13.4942C9.31958 13.9306 8.58717 14.1488 7.5785 14.1488ZM7.5785 13.5495C6.81633 13.5495 6.26808 13.3781 5.93375 13.0352C5.60225 12.6896 5.42942 12.1144 5.41525 11.3097C5.40392 10.3974 5.39542 9.48792 5.38975 8.58125C5.38408 7.67458 5.38408 6.76508 5.38975 5.85275C5.39542 4.94042 5.40392 4.01817 5.41525 3.086C5.42658 2.28417 5.598 1.71325 5.9295 1.37325C6.26383 1.03042 6.80642 0.858999 7.55725 0.858999C8.29675 0.858999 8.83367 1.03042 9.168 1.37325C9.50517 1.71325 9.68792 2.28417 9.71625 3.086C9.72192 3.21067 9.72475 3.36933 9.72475 3.562C9.72475 3.75467 9.72333 3.95867 9.7205 4.174C9.7205 4.3865 9.71908 4.59333 9.71625 4.7945C9.71342 4.99567 9.70917 5.1685 9.7035 5.313H9.338C9.3465 5.0325 9.35217 4.752 9.355 4.4715C9.35783 4.191 9.35783 3.93175 9.355 3.69375C9.355 3.45575 9.35217 3.25883 9.3465 3.103C9.32667 2.4145 9.17933 1.91867 8.9045 1.6155C8.62967 1.3095 8.18058 1.1565 7.55725 1.1565C6.93108 1.1565 6.48058 1.30525 6.20575 1.60275C5.93375 1.89742 5.7935 2.39183 5.785 3.086C5.77083 3.987 5.76092 4.89083 5.75525 5.7975C5.75242 6.70417 5.75242 7.61792 5.75525 8.53875C5.76092 9.45675 5.77083 10.3861 5.785 11.3267C5.7935 12.0266 5.93658 12.5224 6.21425 12.8142C6.49475 13.1061 6.94808 13.252 7.57425 13.252C8.21175 13.252 8.67075 13.1004 8.95125 12.7972C9.23458 12.4912 9.389 11.9897 9.4145 11.2927C9.423 11.0802 9.42725 10.8507 9.42725 10.6042C9.43008 10.3577 9.43008 10.0999 9.42725 9.83075C9.42725 9.55875 9.42158 9.28108 9.41025 8.99775H9.78C9.7885 9.24142 9.79417 9.50067 9.797 9.7755C9.79983 10.0475 9.79983 10.3167 9.797 10.583C9.797 10.8465 9.79275 11.0916 9.78425 11.3182C9.75308 12.1257 9.56325 12.6995 9.21475 13.0395C8.86908 13.3795 8.32367 13.5495 7.5785 13.5495ZM7.57425 12.9545C7.07275 12.9545 6.7115 12.8312 6.4905 12.5847C6.27233 12.3382 6.159 11.9175 6.1505 11.3225C6.13917 10.4272 6.13067 9.52333 6.125 8.611C6.11933 7.69867 6.11933 6.78067 6.125 5.857C6.13067 4.93333 6.13917 4.00967 6.1505 3.086C6.159 2.49667 6.27092 2.07875 6.48625 1.83225C6.70158 1.58292 7.05858 1.45825 7.55725 1.45825C8.04458 1.45825 8.39733 1.58433 8.6155 1.8365C8.8365 2.08867 8.95833 2.51083 8.981 3.103C8.98667 3.27017 8.9895 3.47275 8.9895 3.71075C8.9895 3.94592 8.98808 4.20092 8.98525 4.47575C8.98525 4.75058 8.97958 5.02967 8.96825 5.313H8.60275C8.61125 5.02967 8.61692 4.74633 8.61975 4.463C8.62258 4.17967 8.62258 3.92183 8.61975 3.6895C8.61975 3.45433 8.61692 3.26733 8.61125 3.1285C8.59708 2.6525 8.51208 2.30542 8.35625 2.08725C8.20042 1.86625 7.93408 1.75575 7.55725 1.75575C7.18608 1.75575 6.92117 1.85633 6.7625 2.0575C6.60667 2.25867 6.52592 2.60433 6.52025 3.0945C6.50325 4.01817 6.49192 4.93192 6.48625 5.83575C6.48342 6.73675 6.48342 7.63917 6.48625 8.543C6.49192 9.44683 6.50325 10.3719 6.52025 11.3182C6.52592 11.8056 6.6095 12.1512 6.771 12.3552C6.9325 12.5564 7.20025 12.657 7.57425 12.657C7.94258 12.657 8.21317 12.5536 8.386 12.3467C8.56167 12.1399 8.65942 11.7843 8.67925 11.28C8.69058 11.0023 8.69625 10.6496 8.69625 10.2217C8.69625 9.79392 8.68917 9.38592 8.675 8.99775H9.04475C9.05608 9.36608 9.06175 9.7585 9.06175 10.175C9.06458 10.5887 9.06033 10.957 9.049 11.28C9.0235 11.8863 8.89742 12.317 8.67075 12.572C8.44692 12.827 8.08142 12.9545 7.57425 12.9545ZM14.718 14.1445C13.6838 14.1445 12.9443 13.9249 12.4995 13.4857C12.0575 13.0437 11.8251 12.3269 11.8025 11.3352C11.7855 10.5249 11.7727 9.77833 11.7642 9.0955C11.7586 8.40983 11.7557 7.74967 11.7557 7.115C11.7586 6.4775 11.7628 5.8315 11.7685 5.177C11.777 4.51967 11.7883 3.81417 11.8025 3.0605C11.8251 2.066 12.0589 1.35058 12.5037 0.914249C12.9486 0.475082 13.6866 0.255499 14.718 0.255499C15.7351 0.255499 16.4647 0.475082 16.9067 0.914249C17.3516 1.35342 17.5881 2.06883 17.6165 3.0605C17.6363 3.83117 17.6505 4.56075 17.659 5.24925C17.6703 5.93775 17.676 6.60925 17.676 7.26375C17.676 7.91542 17.6703 8.57417 17.659 9.24C17.6505 9.90583 17.6363 10.6042 17.6165 11.3352C17.5853 12.3212 17.3501 13.0367 16.911 13.4815C16.4718 13.9235 15.7408 14.1445 14.718 14.1445ZM14.718 13.8427C15.6133 13.8427 16.2522 13.6444 16.6347 13.2477C17.0201 12.8511 17.2255 12.2093 17.251 11.3225C17.268 10.5943 17.2807 9.90017 17.2892 9.24C17.3006 8.577 17.3062 7.92108 17.3062 7.27225C17.3062 6.62342 17.302 5.95617 17.2935 5.2705C17.285 4.582 17.2708 3.84958 17.251 3.07325C17.2255 2.18075 17.0201 1.539 16.6347 1.148C16.2494 0.754166 15.6105 0.55725 14.718 0.55725C13.8 0.55725 13.1511 0.755583 12.7715 1.15225C12.3918 1.54892 12.1921 2.18783 12.1722 3.069C12.1552 3.8765 12.1425 4.62308 12.134 5.30875C12.1255 5.99442 12.1212 6.656 12.1212 7.2935C12.1241 7.92817 12.1283 8.57275 12.134 9.22725C12.1425 9.88175 12.1552 10.5816 12.1722 11.3267C12.1921 12.2079 12.3918 12.8482 12.7715 13.2477C13.1511 13.6444 13.8 13.8427 14.718 13.8427ZM14.718 13.5452C13.9388 13.5452 13.3849 13.3724 13.0562 13.0267C12.7304 12.6782 12.5576 12.1087 12.5377 11.3182C12.5207 10.5107 12.508 9.76417 12.4995 9.0785C12.4938 8.39283 12.491 7.73267 12.491 7.098C12.491 6.46333 12.4952 5.82017 12.5037 5.1685C12.5122 4.51683 12.5236 3.81983 12.5377 3.0775C12.5547 2.28417 12.7276 1.71608 13.0562 1.37325C13.3877 1.02758 13.9416 0.854749 14.718 0.854749C15.4915 0.854749 16.0397 1.03183 16.3627 1.386C16.6857 1.73733 16.8586 2.30258 16.8812 3.08175C16.9039 3.89775 16.9195 4.64858 16.928 5.33425C16.9365 6.01992 16.9407 6.67867 16.9407 7.3105C16.9407 7.94233 16.9351 8.58267 16.9237 9.2315C16.9152 9.8775 16.9011 10.5702 16.8812 11.3097C16.8586 12.0832 16.6871 12.6499 16.367 13.0097C16.0496 13.3667 15.5 13.5452 14.718 13.5452ZM14.718 13.2477C15.364 13.2477 15.8201 13.0933 16.0865 12.7845C16.3528 12.4757 16.4959 11.9812 16.5157 11.3012C16.5356 10.5079 16.5497 9.77833 16.5582 9.1125C16.5696 8.44667 16.5752 7.80067 16.5752 7.1745C16.5752 6.54833 16.5696 5.90658 16.5582 5.24925C16.5497 4.59192 16.5356 3.87508 16.5157 3.09875C16.4959 2.43292 16.3571 1.94275 16.0992 1.62825C15.8442 1.31092 15.3838 1.15225 14.718 1.15225C14.0606 1.15225 13.5974 1.30525 13.3282 1.61125C13.0619 1.91442 12.9216 2.40458 12.9075 3.08175C12.8905 3.86375 12.8777 4.59192 12.8692 5.26625C12.8607 5.94058 12.8565 6.5965 12.8565 7.234C12.8593 7.8715 12.8636 8.52175 12.8692 9.18475C12.8777 9.84492 12.8905 10.5532 12.9075 11.3097C12.9216 12.0067 13.0661 12.504 13.341 12.8015C13.6186 13.099 14.0776 13.2477 14.718 13.2477ZM14.718 12.9502C14.191 12.9502 13.8212 12.8213 13.6087 12.5635C13.3962 12.3028 13.2843 11.8835 13.273 11.3055C13.2531 10.226 13.239 9.25133 13.2305 8.3815C13.2248 7.51167 13.2262 6.65883 13.2347 5.823C13.2432 4.98433 13.256 4.07342 13.273 3.09025C13.2843 2.50942 13.3962 2.0915 13.6087 1.8365C13.8212 1.57867 14.191 1.44975 14.718 1.44975C15.2506 1.44975 15.619 1.58575 15.823 1.85775C16.027 2.12692 16.1346 2.54342 16.146 3.10725C16.1658 3.91758 16.18 4.65708 16.1885 5.32575C16.1998 5.99158 16.2055 6.63333 16.2055 7.251C16.2055 7.86867 16.1998 8.50333 16.1885 9.155C16.18 9.80383 16.1658 10.515 16.146 11.2885C16.1318 11.8608 16.0213 12.2816 15.8145 12.5507C15.6076 12.8171 15.2421 12.9502 14.718 12.9502ZM14.718 12.6527C15.1146 12.6527 15.3866 12.5408 15.534 12.317C15.6841 12.0932 15.7663 11.7475 15.7805 11.28C15.8003 10.4838 15.8145 9.75708 15.823 9.09975C15.8343 8.43958 15.84 7.80208 15.84 7.18725C15.84 6.56958 15.8343 5.93492 15.823 5.28325C15.8145 4.62875 15.8003 3.90767 15.7805 3.12C15.7663 2.627 15.6813 2.27567 15.5255 2.066C15.3725 1.8535 15.1033 1.74725 14.718 1.74725C14.3326 1.74725 14.0592 1.84925 13.8977 2.05325C13.7362 2.25725 13.6512 2.60575 13.6427 3.09875C13.6229 4.14142 13.6087 5.09342 13.6002 5.95475C13.5917 6.81608 13.5917 7.67033 13.6002 8.5175C13.6087 9.36467 13.6229 10.2912 13.6427 11.297C13.6512 11.7702 13.732 12.1144 13.885 12.3297C14.0408 12.5451 14.3185 12.6527 14.718 12.6527ZM19.1176 14V0.4H22.2584L23.0361 7.3105L23.5631 12.5082H23.7714L24.3026 7.31475L25.0591 0.4H28.2211V14H27.8556V0.6975H25.3736L24.6171 7.54425L24.0604 12.8057H23.2826L22.7259 7.54425L21.9439 0.6975H19.4831V14H19.1176ZM20.6221 14L20.5541 8.5175L20.2864 1.59425H21.0641L21.8504 8.5005L22.4029 13.7025H24.9316L25.4884 8.49625L26.2704 1.59425H27.0524L26.7889 8.5175L26.7209 14H26.3511L26.4191 8.8065L26.7294 1.89175H26.5466L25.8071 8.79375L25.2631 14H22.0756L21.5359 8.79375L20.7964 1.89175H20.6094L20.9196 8.8065L20.9876 14H20.6221ZM19.8529 14L19.8189 7.86725L19.6999 0.994999H21.6464L22.4411 7.7695L22.9766 13.1032H24.3409L24.8976 7.7695L25.7009 0.994999H27.6389L27.5241 7.86725L27.4901 14H27.1204L27.1544 8.24125L27.2946 1.29675H26.0111L25.2036 8.15625L24.6384 13.405H22.6791L22.1351 8.15625L21.3404 1.29675H20.0484L20.1844 8.24125L20.2184 14H19.8529ZM29.8091 14V0.4H34.6668V0.723H30.1746V14H29.8091ZM31.2796 14V7.5995H34.4968V7.9225H31.6451V14H31.2796ZM30.5443 14V1.04175H34.6668V1.36475H30.9098V6.95775H34.4968V7.28075H30.9098V14H30.5443ZM31.2796 6.639V1.6835H34.6668V2.0065H31.6451V6.316H34.4968V6.639H31.2796ZM38.5412 14.1445C37.507 14.1445 36.7675 13.9249 36.3227 13.4857C35.8807 13.0437 35.6484 12.3269 35.6257 11.3352C35.6087 10.5249 35.596 9.77833 35.5875 9.0955C35.5818 8.40983 35.579 7.74967 35.579 7.115C35.5818 6.4775 35.586 5.8315 35.5917 5.177C35.6002 4.51967 35.6115 3.81417 35.6257 3.0605C35.6484 2.066 35.8821 1.35058 36.327 0.914249C36.7718 0.475082 37.5099 0.255499 38.5412 0.255499C39.5584 0.255499 40.288 0.475082 40.73 0.914249C41.1748 1.35342 41.4114 2.06883 41.4397 3.0605C41.4595 3.83117 41.4737 4.56075 41.4822 5.24925C41.4935 5.93775 41.4992 6.60925 41.4992 7.26375C41.4992 7.91542 41.4935 8.57417 41.4822 9.24C41.4737 9.90583 41.4595 10.6042 41.4397 11.3352C41.4085 12.3212 41.1734 13.0367 40.7342 13.4815C40.295 13.9235 39.564 14.1445 38.5412 14.1445ZM38.5412 13.8427C39.4365 13.8427 40.0755 13.6444 40.458 13.2477C40.8433 12.8511 41.0487 12.2093 41.0742 11.3225C41.0912 10.5943 41.104 9.90017 41.1125 9.24C41.1238 8.577 41.1295 7.92108 41.1295 7.27225C41.1295 6.62342 41.1252 5.95617 41.1167 5.2705C41.1082 4.582 41.094 3.84958 41.0742 3.07325C41.0487 2.18075 40.8433 1.539 40.458 1.148C40.0726 0.754166 39.4337 0.55725 38.5412 0.55725C37.6232 0.55725 36.9744 0.755583 36.5947 1.15225C36.215 1.54892 36.0153 2.18783 35.9955 3.069C35.9785 3.8765 35.9657 4.62308 35.9572 5.30875C35.9487 5.99442 35.9445 6.656 35.9445 7.2935C35.9473 7.92817 35.9515 8.57275 35.9572 9.22725C35.9657 9.88175 35.9785 10.5816 35.9955 11.3267C36.0153 12.2079 36.215 12.8482 36.5947 13.2477C36.9744 13.6444 37.6232 13.8427 38.5412 13.8427ZM38.5412 13.5452C37.762 13.5452 37.2081 13.3724 36.8795 13.0267C36.5536 12.6782 36.3808 12.1087 36.361 11.3182C36.344 10.5107 36.3312 9.76417 36.3227 9.0785C36.317 8.39283 36.3142 7.73267 36.3142 7.098C36.3142 6.46333 36.3185 5.82017 36.327 5.1685C36.3355 4.51683 36.3468 3.81983 36.361 3.0775C36.378 2.28417 36.5508 1.71608 36.8795 1.37325C37.211 1.02758 37.7649 0.854749 38.5412 0.854749C39.3147 0.854749 39.863 1.03183 40.186 1.386C40.509 1.73733 40.6818 2.30258 40.7045 3.08175C40.7271 3.89775 40.7427 4.64858 40.7512 5.33425C40.7597 6.01992 40.764 6.67867 40.764 7.3105C40.764 7.94233 40.7583 8.58267 40.747 9.2315C40.7385 9.8775 40.7243 10.5702 40.7045 11.3097C40.6818 12.0832 40.5104 12.6499 40.1902 13.0097C39.8729 13.3667 39.3232 13.5452 38.5412 13.5452ZM38.5412 13.2477C39.1872 13.2477 39.6434 13.0933 39.9097 12.7845C40.176 12.4757 40.3191 11.9812 40.339 11.3012C40.3588 10.5079 40.373 9.77833 40.3815 9.1125C40.3928 8.44667 40.3985 7.80067 40.3985 7.1745C40.3985 6.54833 40.3928 5.90658 40.3815 5.24925C40.373 4.59192 40.3588 3.87508 40.339 3.09875C40.3191 2.43292 40.1803 1.94275 39.9225 1.62825C39.6675 1.31092 39.207 1.15225 38.5412 1.15225C37.8839 1.15225 37.4206 1.30525 37.1515 1.61125C36.8851 1.91442 36.7449 2.40458 36.7307 3.08175C36.7137 3.86375 36.701 4.59192 36.6925 5.26625C36.684 5.94058 36.6797 6.5965 36.6797 7.234C36.6825 7.8715 36.6868 8.52175 36.6925 9.18475C36.701 9.84492 36.7137 10.5532 36.7307 11.3097C36.7449 12.0067 36.8894 12.504 37.1642 12.8015C37.4419 13.099 37.9009 13.2477 38.5412 13.2477ZM38.5412 12.9502C38.0142 12.9502 37.6445 12.8213 37.432 12.5635C37.2195 12.3028 37.1075 11.8835 37.0962 11.3055C37.0764 10.226 37.0622 9.25133 37.0537 8.3815C37.048 7.51167 37.0495 6.65883 37.058 5.823C37.0665 4.98433 37.0792 4.07342 37.0962 3.09025C37.1075 2.50942 37.2195 2.0915 37.432 1.8365C37.6445 1.57867 38.0142 1.44975 38.5412 1.44975C39.0739 1.44975 39.4422 1.58575 39.6462 1.85775C39.8502 2.12692 39.9579 2.54342 39.9692 3.10725C39.989 3.91758 40.0032 4.65708 40.0117 5.32575C40.023 5.99158 40.0287 6.63333 40.0287 7.251C40.0287 7.86867 40.023 8.50333 40.0117 9.155C40.0032 9.80383 39.989 10.515 39.9692 11.2885C39.955 11.8608 39.8445 12.2816 39.6377 12.5507C39.4309 12.8171 39.0654 12.9502 38.5412 12.9502ZM38.5412 12.6527C38.9379 12.6527 39.2099 12.5408 39.3572 12.317C39.5074 12.0932 39.5895 11.7475 39.6037 11.28C39.6235 10.4838 39.6377 9.75708 39.6462 9.09975C39.6575 8.43958 39.6632 7.80208 39.6632 7.18725C39.6632 6.56958 39.6575 5.93492 39.6462 5.28325C39.6377 4.62875 39.6235 3.90767 39.6037 3.12C39.5895 2.627 39.5045 2.27567 39.3487 2.066C39.1957 1.8535 38.9265 1.74725 38.5412 1.74725C38.1559 1.74725 37.8825 1.84925 37.721 2.05325C37.5595 2.25725 37.4745 2.60575 37.466 3.09875C37.4461 4.14142 37.432 5.09342 37.4235 5.95475C37.415 6.81608 37.415 7.67033 37.4235 8.5175C37.432 9.36467 37.4461 10.2912 37.466 11.297C37.4745 11.7702 37.5552 12.1144 37.7082 12.3297C37.864 12.5451 38.1417 12.6527 38.5412 12.6527ZM42.9409 14V0.4H45.6566C46.2828 0.4 46.8098 0.482166 47.2376 0.646499C47.6655 0.810833 47.9941 1.09417 48.2236 1.4965C48.4531 1.896 48.5806 2.4485 48.6061 3.154C48.6288 3.7915 48.6401 4.37658 48.6401 4.90925C48.6401 5.43908 48.6288 5.98167 48.6061 6.537C48.5835 7.16033 48.4687 7.64908 48.2619 8.00325C48.0579 8.35458 47.7377 8.62517 47.3014 8.815L48.7166 14H48.3299L46.8466 8.628C47.3198 8.49767 47.6641 8.26958 47.8794 7.94375C48.0947 7.61508 48.2151 7.14192 48.2406 6.52425C48.2605 5.98592 48.2704 5.44617 48.2704 4.905C48.2732 4.36383 48.2633 3.78442 48.2406 3.16675C48.218 2.53208 48.1046 2.03767 47.9006 1.6835C47.6966 1.32933 47.4062 1.08142 47.0294 0.939749C46.6554 0.79525 46.1978 0.723 45.6566 0.723H43.3064V14H42.9409ZM44.4114 14V8.74275H45.2486C45.3336 8.74275 45.4158 8.74275 45.4951 8.74275C45.5773 8.73992 45.6566 8.7385 45.7331 8.7385L47.1739 14H46.7914L45.4611 9.0615C45.43 9.0615 45.3974 9.0615 45.3634 9.0615C45.3294 9.0615 45.2968 9.0615 45.2656 9.0615H44.7769V14H44.4114ZM43.6761 14V1.04175H45.6566C46.1185 1.04175 46.5095 1.10408 46.8296 1.22875C47.1498 1.35058 47.3977 1.56733 47.5734 1.879C47.7519 2.18783 47.8511 2.62133 47.8709 3.1795C47.8936 3.76883 47.9049 4.33833 47.9049 4.888C47.9077 5.43483 47.8964 5.976 47.8709 6.5115C47.8482 7.08667 47.7207 7.51875 47.4884 7.80775C47.2561 8.09675 46.8835 8.28517 46.3706 8.373L47.9431 14H47.5606L46.0009 8.407C45.9471 8.41267 45.8904 8.41692 45.8309 8.41975C45.7742 8.41975 45.7147 8.41975 45.6524 8.41975H44.0416V14H43.6761ZM44.0416 8.09675H45.6524C46.2304 8.09675 46.6766 7.98767 46.9911 7.7695C47.3085 7.55133 47.4799 7.12775 47.5054 6.49875C47.5252 5.96042 47.5351 5.42492 47.5351 4.89225C47.538 4.35675 47.5281 3.79008 47.5054 3.19225C47.4799 2.46975 47.3085 1.98525 46.9911 1.73875C46.6738 1.48942 46.229 1.36475 45.6566 1.36475H44.0416V8.09675ZM44.4114 7.778V1.6835H45.6566C46.1156 1.6835 46.4712 1.78692 46.7234 1.99375C46.9784 2.19775 47.1158 2.6015 47.1356 3.205C47.1583 3.76883 47.1696 4.31992 47.1696 4.85825C47.1696 5.39658 47.1583 5.93917 47.1356 6.486C47.1158 6.99883 46.9798 7.34308 46.7276 7.51875C46.4755 7.69158 46.1171 7.778 45.6524 7.778H44.4114ZM44.7769 7.455H45.6524C46.0122 7.455 46.2856 7.38983 46.4726 7.2595C46.6596 7.12633 46.7588 6.86567 46.7701 6.4775C46.7871 5.86833 46.7956 5.3045 46.7956 4.786C46.7956 4.26467 46.7871 3.74192 46.7701 3.21775C46.756 2.75025 46.6582 2.4315 46.4769 2.2615C46.2956 2.0915 46.0221 2.0065 45.6566 2.0065H44.7769V7.455ZM51.8566 14V1.36475H49.1621V1.04175H54.9123V1.36475H52.2263V14H51.8566ZM51.1213 14V2.0065H49.1621V1.6835H51.4911V14H51.1213ZM52.5918 14V1.6835H54.9123V2.0065H52.9616V14H52.5918ZM49.1621 0.723V0.4H54.9123V0.723H49.1621Z" fill="#4875A8"/>
<path d="M4.32812 33V15.8H10.4664V17.864H6.65012V23.2605H10.2514V25.3245H6.65012V30.936H10.4664V33H4.32812ZM11.9497 33V15.8H15.508C16.8051 15.8 17.744 16.0831 18.3245 16.6492C18.905 17.2082 19.206 18.1363 19.2275 19.4335C19.249 20.616 19.2633 21.7376 19.2705 22.7982C19.2776 23.8589 19.2776 24.9232 19.2705 25.991C19.2633 27.0517 19.249 28.1732 19.2275 29.3557C19.206 30.6529 18.905 31.5846 18.3245 32.1507C17.744 32.7169 16.8015 33 15.4972 33H11.9497ZM14.2717 30.936H15.4972C15.9702 30.936 16.3214 30.8285 16.5507 30.6135C16.78 30.3913 16.8983 30.0581 16.9055 29.6137C16.927 28.7394 16.9413 27.8687 16.9485 27.0015C16.9556 26.1272 16.9592 25.2564 16.9592 24.3892C16.9592 23.5221 16.9556 22.6549 16.9485 21.7877C16.9413 20.9134 16.927 20.0391 16.9055 19.1647C16.8983 18.7276 16.78 18.4015 16.5507 18.1865C16.3214 17.9715 15.9738 17.864 15.508 17.864H14.2717V30.936ZM21.146 33V15.8H23.468V33H21.146ZM27.0622 33V17.864H24.5897V15.8H31.8674V17.864H29.3949V33H27.0622ZM32.9878 33V15.8H35.3098V33H32.9878ZM40.9142 33.1828C39.6242 33.1828 38.6926 32.9104 38.1192 32.3657C37.5531 31.8139 37.2592 30.9002 37.2377 29.6245C37.2162 28.7645 37.2019 27.8973 37.1947 27.023C37.1876 26.1487 37.184 25.2743 37.184 24.4C37.184 23.5185 37.1876 22.6442 37.1947 21.777C37.2019 20.9027 37.2162 20.0319 37.2377 19.1647C37.2592 17.8962 37.5531 16.9897 38.1192 16.445C38.6926 15.8932 39.6242 15.6172 40.9142 15.6172C42.2042 15.6172 43.1287 15.8932 43.6877 16.445C44.2539 16.9897 44.5513 17.8962 44.58 19.1647C44.6086 20.0391 44.6266 20.9134 44.6337 21.7877C44.6481 22.6621 44.6552 23.5364 44.6552 24.4107C44.6552 25.2851 44.6481 26.1594 44.6337 27.0337C44.6266 27.9009 44.6086 28.7645 44.58 29.6245C44.5513 30.9002 44.2539 31.8139 43.6877 32.3657C43.1287 32.9104 42.2042 33.1828 40.9142 33.1828ZM40.9142 31.2585C41.3729 31.2585 41.7097 31.1617 41.9247 30.9682C42.1397 30.7676 42.2508 30.4558 42.258 30.033C42.2938 29.1443 42.3153 28.2234 42.3225 27.2702C42.3368 26.3099 42.344 25.3424 42.344 24.3677C42.344 23.3931 42.3368 22.4327 42.3225 21.4867C42.3081 20.5407 42.2866 19.6306 42.258 18.7562C42.2508 18.3334 42.1361 18.0252 41.914 17.8317C41.699 17.6311 41.3657 17.5307 40.9142 17.5307C40.4627 17.5307 40.1259 17.6311 39.9037 17.8317C39.6887 18.0252 39.5741 18.3334 39.5597 18.7562C39.5311 19.6306 39.506 20.5407 39.4845 21.4867C39.4701 22.4327 39.463 23.3931 39.463 24.3677C39.4701 25.3424 39.4809 26.3099 39.4952 27.2702C39.5096 28.2234 39.5311 29.1443 39.5597 30.033C39.5741 30.4558 39.6887 30.7676 39.9037 30.9682C40.1259 31.1617 40.4627 31.2585 40.9142 31.2585ZM46.5093 33V15.8H50.0568L51.1748 21.261L52.497 30.936H53.0238L52.5938 22.5295L52.4218 15.8H54.6793V33H50.9705L49.788 27.0982L48.7345 17.8532H48.1755L48.5733 26.4855L48.756 33H46.5093Z" fill="#4875A8"/>
</svg>
