<svg width="502" height="286" viewBox="0 0 502 286" fill="none" xmlns="http://www.w3.org/2000/svg">
<path d="M421.322 43.867C446.075 43.867 466.143 63.9395 466.143 88.7C466.143 113.46 446.075 133.533 421.322 133.533C396.567 133.533 376.499 113.46 376.499 88.7C376.499 63.9395 396.567 43.867 421.322 43.867ZM62.7503 25.933C97.4064 25.933 125.501 54.0347 125.501 88.7L125.159 95.284L257.963 164.173C268.485 156.198 281.601 151.467 295.821 151.467L340.643 88.7C340.643 44.1309 376.763 8 421.322 8C465.879 8 502 44.1309 502 88.7C502 133.269 465.879 169.4 421.322 169.4L358.571 214.233C358.571 248.898 330.477 277 295.821 277C261.165 277 233.072 248.898 233.072 214.233C233.072 213.448 233.085 212.665 233.115 211.886L97.0191 141.289C87.1667 147.726 75.395 151.467 62.7503 151.467C28.0942 151.467 0 123.365 0 88.7C0 54.0347 28.0942 25.933 62.7503 25.933ZM314.441 193.471C327.675 200.215 332.936 216.414 326.193 229.651C319.452 242.889 303.257 248.152 290.023 241.407L251.58 221.465C255.037 242.788 273.529 259.067 295.821 259.067C320.576 259.067 340.643 238.995 340.643 214.233C340.643 189.473 320.575 169.4 295.821 169.4C288.895 169.4 282.335 170.972 276.479 173.779L314.441 193.471ZM62.7503 43.867C37.9964 43.867 17.9293 63.9395 17.9293 88.7C17.9293 113.46 37.9964 133.533 62.7503 133.533C67.8684 133.533 72.7861 132.676 77.3675 131.096L47.6099 115.659C34.3764 108.914 29.1145 92.7163 35.8575 79.4793C42.6005 66.2422 58.7939 60.9788 72.0286 67.7237L107.499 86.1233C106.164 62.5611 86.639 43.867 62.7503 43.867ZM421.322 25.933C386.665 25.933 358.571 54.0347 358.571 88.7C358.571 123.365 386.665 151.467 421.322 151.467C455.976 151.467 484.071 123.365 484.071 88.7C484.071 54.0347 455.976 25.933 421.322 25.933Z" fill="white" fill-opacity="0.05"/>
<path d="M59.3645 122.304C50.3997 122.304 43.9554 120.379 40.0318 116.53C36.1329 112.681 34.109 106.348 33.96 97.5325C33.8358 88.9898 33.7613 80.6582 33.7365 72.5377C33.7117 64.4172 33.7117 56.4333 33.7365 48.586C33.7862 40.7387 33.8607 32.9658 33.96 25.2675C34.109 16.4517 36.1329 10.144 40.0318 6.3445C43.9306 2.52016 50.3128 0.607996 59.1783 0.607996C67.8451 0.607996 74.1652 2.49533 78.1385 6.26999C82.1367 10.0198 84.2723 16.3523 84.5455 25.2675C84.5952 26.4098 84.62 27.8005 84.62 29.4395C84.62 31.0785 84.6076 32.8168 84.5828 34.6545C84.5828 36.4922 84.5703 38.305 84.5455 40.093C84.5207 41.8562 84.4834 43.4455 84.4338 44.861H81.2303C81.2799 43.0482 81.3172 40.9001 81.342 38.4167C81.3917 35.9334 81.4041 33.5122 81.3793 31.153C81.3793 28.769 81.3544 26.832 81.3048 25.342C81.0564 17.3457 79.1939 11.6588 75.7173 8.28149C72.2654 4.90416 66.7524 3.21549 59.1783 3.21549C51.3806 3.21549 45.7931 4.92899 42.4158 8.35599C39.0384 11.7582 37.3001 17.4077 37.2008 25.3047C37.0766 33.4004 36.9897 41.4961 36.94 49.5917C36.9152 57.6626 36.9152 65.6962 36.94 73.6925C36.9897 81.6888 37.0766 89.6231 37.2008 97.4952C37.3001 105.417 39.0633 111.104 42.4903 114.556C45.9421 117.983 51.5668 119.696 59.3645 119.696C67.0628 119.696 72.6752 117.995 76.2015 114.593C79.7278 111.166 81.6276 105.454 81.9008 97.458C82.0001 94.5525 82.0498 91.3366 82.0498 87.8102C82.0746 84.2839 82.0125 80.7327 81.8635 77.1567H85.067C85.1912 80.3602 85.2533 83.8121 85.2533 87.5122C85.2781 91.1876 85.2408 94.5277 85.1415 97.5325C84.8187 106.398 82.6458 112.743 78.6228 116.567C74.6246 120.392 68.2052 122.304 59.3645 122.304ZM59.3645 117.051C52.6843 117.051 47.8791 115.549 44.9488 112.544C42.0433 109.515 40.5284 104.473 40.4043 97.4207C40.3049 89.4244 40.2304 81.4529 40.1808 73.5062C40.1311 65.5596 40.1311 57.5881 40.1808 49.5917C40.2304 41.5954 40.3049 33.5122 40.4043 25.342C40.5036 18.3142 42.006 13.3102 44.9115 10.3302C47.8418 7.32541 52.5974 5.82299 59.1783 5.82299C65.6598 5.82299 70.3657 7.32541 73.296 10.3302C76.2512 13.3102 77.8529 18.3142 78.1013 25.342C78.1509 26.4347 78.1758 27.8253 78.1758 29.514C78.1758 31.2027 78.1633 32.9907 78.1385 34.878C78.1385 36.7405 78.1261 38.5533 78.1013 40.3165C78.0764 42.0797 78.0392 43.5945 77.9895 44.861H74.786C74.8605 42.4025 74.9102 39.944 74.935 37.4855C74.9598 35.027 74.9598 32.7547 74.935 30.6687C74.935 28.5827 74.9102 26.8568 74.8605 25.491C74.6867 19.4565 73.3953 15.1107 70.9865 12.4535C68.5777 9.7715 64.6416 8.4305 59.1783 8.4305C53.6901 8.4305 49.7416 9.73425 47.3328 12.3417C44.9488 14.9244 43.7195 19.2578 43.645 25.342C43.5208 33.239 43.4339 41.1608 43.3843 49.1075C43.3594 57.0542 43.3594 65.0629 43.3843 73.1337C43.4339 81.1797 43.5208 89.3251 43.645 97.5697C43.7195 103.704 44.9736 108.049 47.4073 110.607C49.8658 113.165 53.8391 114.444 59.3273 114.444C64.9148 114.444 68.9378 113.115 71.3963 110.458C73.8796 107.776 75.233 103.381 75.4565 97.2717C75.531 95.4092 75.5683 93.3977 75.5683 91.2372C75.5931 89.0767 75.5931 86.8169 75.5683 84.4577C75.5683 82.0737 75.5186 79.6401 75.4193 77.1567H78.66C78.7345 79.2924 78.7842 81.5647 78.809 83.9735C78.8338 86.3575 78.8338 88.7167 78.809 91.051C78.809 93.3605 78.7718 95.5086 78.6973 97.4952C78.4241 104.573 76.7603 109.601 73.7058 112.581C70.6761 115.561 65.8957 117.051 59.3645 117.051ZM59.3273 111.836C54.9318 111.836 51.7655 110.756 49.8285 108.596C47.9163 106.435 46.923 102.747 46.8485 97.5325C46.7492 89.6852 46.6747 81.7633 46.625 73.767C46.5753 65.7707 46.5753 57.7247 46.625 49.629C46.6747 41.5333 46.7492 33.4377 46.8485 25.342C46.923 20.1767 47.9039 16.5137 49.7913 14.3532C51.6786 12.1679 54.8076 11.0752 59.1783 11.0752C63.4496 11.0752 66.5413 12.1803 68.4535 14.3905C70.3905 16.6007 71.4583 20.3008 71.657 25.491C71.7067 26.9562 71.7315 28.7317 71.7315 30.8177C71.7315 32.8789 71.7191 35.1139 71.6943 37.5227C71.6943 39.9316 71.6446 42.3777 71.5453 44.861H68.3418C68.4163 42.3777 68.4659 39.8943 68.4908 37.411C68.5156 34.9277 68.5156 32.6678 68.4908 30.6315C68.4908 28.5703 68.4659 26.9313 68.4163 25.7145C68.2921 21.5425 67.5471 18.5004 66.1813 16.5882C64.8154 14.6512 62.4811 13.6827 59.1783 13.6827C55.9251 13.6827 53.6032 14.5643 52.2125 16.3275C50.8467 18.0907 50.1389 21.1203 50.0893 25.4165C49.9403 33.5122 49.8409 41.5209 49.7913 49.4427C49.7664 57.3397 49.7664 65.2492 49.7913 73.171C49.8409 81.0928 49.9403 89.2009 50.0893 97.4952C50.1389 101.767 50.8715 104.796 52.287 106.584C53.7025 108.347 56.0493 109.229 59.3273 109.229C62.5556 109.229 64.9272 108.323 66.442 106.51C67.9817 104.697 68.8384 101.58 69.0123 97.16C69.1116 94.7263 69.1613 91.6346 69.1613 87.8847C69.1613 84.1349 69.0992 80.5589 68.975 77.1567H72.2158C72.3151 80.3851 72.3648 83.8245 72.3648 87.475C72.3896 91.1007 72.3523 94.329 72.253 97.16C72.0295 102.474 70.9244 106.249 68.9378 108.484C66.9759 110.719 63.7724 111.836 59.3273 111.836ZM121.94 122.267C112.876 122.267 106.394 120.342 102.495 116.493C98.6213 112.619 96.585 106.336 96.3863 97.6442C96.2373 90.5419 96.1256 83.9983 96.0511 78.0135C96.0014 72.0038 95.9766 66.2177 95.9766 60.655C96.0014 55.0675 96.0387 49.4055 96.0883 43.669C96.1628 37.9077 96.2622 31.7242 96.3863 25.1185C96.585 16.402 98.6338 10.1316 102.533 6.30724C106.431 2.45808 112.901 0.533492 121.94 0.533492C130.855 0.533492 137.25 2.45808 141.124 6.30724C145.022 10.1564 147.096 16.4268 147.344 25.1185C147.518 31.8732 147.642 38.2677 147.717 44.3022C147.816 50.3367 147.866 56.2222 147.866 61.9587C147.866 67.6704 147.816 73.4442 147.717 79.28C147.642 85.1158 147.518 91.2372 147.344 97.6442C147.071 106.286 145.01 112.557 141.161 116.455C137.312 120.329 130.905 122.267 121.94 122.267ZM121.94 119.622C129.787 119.622 135.387 117.883 138.74 114.407C142.117 110.93 143.917 105.305 144.141 97.5325C144.29 91.1503 144.402 85.0662 144.476 79.28C144.575 73.469 144.625 67.7201 144.625 62.0332C144.625 56.3464 144.588 50.4982 144.513 44.4885C144.439 38.454 144.315 32.0346 144.141 25.2302C143.917 17.4077 142.117 11.783 138.74 8.35599C135.362 4.90416 129.762 3.17825 121.94 3.17825C113.894 3.17825 108.207 4.91658 104.879 8.39324C101.552 11.8699 99.8009 17.4698 99.6271 25.193C99.4781 32.2705 99.3663 38.8141 99.2918 44.8237C99.2173 50.8334 99.1801 56.632 99.1801 62.2195C99.2049 67.7822 99.2422 73.4317 99.2918 79.1682C99.3663 84.9047 99.4781 91.0386 99.6271 97.5697C99.8009 105.293 101.552 110.905 104.879 114.407C108.207 117.883 113.894 119.622 121.94 119.622ZM121.94 117.014C115.111 117.014 110.256 115.499 107.375 112.47C104.519 109.415 103.004 104.424 102.831 97.4952C102.682 90.4177 102.57 83.8742 102.495 77.8645C102.446 71.8548 102.421 66.0687 102.421 60.506C102.421 54.9433 102.458 49.3062 102.533 43.5945C102.607 37.8828 102.706 31.7738 102.831 25.2675C102.98 18.3142 104.494 13.3351 107.375 10.3302C110.281 7.30058 115.136 5.78574 121.94 5.78574C128.719 5.78574 133.525 7.33783 136.356 10.442C139.187 13.5213 140.701 18.4756 140.9 25.3047C141.099 32.4567 141.235 39.0376 141.31 45.0472C141.384 51.0569 141.422 56.8307 141.422 62.3685C141.422 67.9063 141.372 73.5187 141.273 79.2055C141.198 84.8675 141.074 90.9392 140.9 97.4207C140.701 104.2 139.199 109.167 136.393 112.321C133.612 115.45 128.794 117.014 121.94 117.014ZM121.94 114.407C127.602 114.407 131.6 113.053 133.934 110.346C136.269 107.64 137.523 103.306 137.697 97.3462C137.87 90.3929 137.995 83.9983 138.069 78.1625C138.168 72.3267 138.218 66.6647 138.218 61.1765C138.218 55.6883 138.168 50.0636 138.069 44.3022C137.995 38.5409 137.87 32.2581 137.697 25.4537C137.523 19.6179 136.306 15.3217 134.046 12.5652C131.811 9.78391 127.776 8.39324 121.94 8.39324C116.179 8.39324 112.118 9.73424 109.759 12.4162C107.425 15.0734 106.196 19.3696 106.071 25.3047C105.922 32.1587 105.811 38.5409 105.736 44.4512C105.662 50.3616 105.624 56.1105 105.624 61.698C105.649 67.2855 105.686 72.9847 105.736 78.7957C105.811 84.5819 105.922 90.7902 106.071 97.4207C106.196 103.53 107.462 107.888 109.871 110.495C112.305 113.103 116.328 114.407 121.94 114.407ZM121.94 111.799C117.321 111.799 114.08 110.669 112.218 108.409C110.355 106.125 109.374 102.449 109.275 97.3835C109.101 87.922 108.977 79.3793 108.902 71.7555C108.853 64.1317 108.865 56.6568 108.94 49.331C109.014 41.9803 109.126 33.9964 109.275 25.3792C109.374 20.2884 110.355 16.6255 112.218 14.3905C114.08 12.1307 117.321 11.0007 121.94 11.0007C126.609 11.0007 129.837 12.1927 131.625 14.5767C133.413 16.9359 134.357 20.5864 134.456 25.5282C134.63 32.6306 134.754 39.1121 134.828 44.9727C134.928 50.8086 134.977 56.4333 134.977 61.847C134.977 67.2607 134.928 72.8233 134.828 78.535C134.754 84.2218 134.63 90.455 134.456 97.2345C134.332 102.251 133.363 105.939 131.55 108.298C129.738 110.632 126.534 111.799 121.94 111.799ZM121.94 109.192C125.417 109.192 127.801 108.211 129.092 106.249C130.408 104.287 131.128 101.257 131.252 97.16C131.426 90.1818 131.55 83.8121 131.625 78.0508C131.724 72.2646 131.774 66.6771 131.774 61.2882C131.774 55.8746 131.724 50.3119 131.625 44.6002C131.55 38.8637 131.426 32.5437 131.252 25.64C131.128 21.319 130.383 18.2397 129.017 16.402C127.676 14.5395 125.317 13.6082 121.94 13.6082C118.563 13.6082 116.166 14.5022 114.751 16.2902C113.335 18.0782 112.59 21.1327 112.516 25.4537C112.342 34.5924 112.218 42.9364 112.143 50.4857C112.069 58.0351 112.069 65.5223 112.143 72.9475C112.218 80.3727 112.342 88.4932 112.516 97.309C112.59 101.456 113.298 104.473 114.639 106.361C116.005 108.248 118.438 109.192 121.94 109.192ZM160.502 121V1.8H188.029L194.846 62.3685L199.465 107.925H201.29L205.947 62.4057L212.577 1.8H240.291V121H237.088V4.4075H215.334L208.703 64.4172L203.823 110.533H197.007L192.127 64.4172L185.273 4.4075H163.705V121H160.502ZM173.688 121L173.092 72.9475L170.745 12.2672H177.562L184.453 72.7985L189.296 118.392H211.46L216.339 72.7612L223.193 12.2672H230.048L227.738 72.9475L227.142 121H223.901L224.497 75.4805L227.216 14.8747H225.615L219.133 75.3687L214.365 121H186.428L181.697 75.3687L175.215 14.8747H173.576L176.296 75.4805L176.892 121H173.688ZM166.946 121L166.648 67.2482L165.605 7.01499H182.665L189.631 66.3915L194.325 113.14H206.282L211.162 66.3915L218.202 7.01499H235.188L234.182 67.2482L233.884 121H230.643L230.941 70.5262L232.171 9.65975H220.921L213.844 69.7812L208.889 115.785H191.717L186.949 69.7812L179.983 9.65975H168.659L169.851 70.5262L170.149 121H166.946ZM254.209 121V1.8H296.786V4.631H257.412V121H254.209ZM267.097 121V64.9015H295.296V67.7325H270.301V121H267.097ZM260.653 121V7.42474H296.786V10.2557H263.857V59.2767H295.296V62.1077H263.857V121H260.653ZM267.097 56.483V13.0495H296.786V15.8805H270.301V53.652H295.296V56.483H267.097ZM330.744 122.267C321.679 122.267 315.198 120.342 311.299 116.493C307.425 112.619 305.389 106.336 305.19 97.6442C305.041 90.5419 304.929 83.9983 304.855 78.0135C304.805 72.0038 304.78 66.2177 304.78 60.655C304.805 55.0675 304.842 49.4055 304.892 43.669C304.967 37.9077 305.066 31.7242 305.19 25.1185C305.389 16.402 307.437 10.1316 311.336 6.30724C315.235 2.45808 321.704 0.533492 330.744 0.533492C339.659 0.533492 346.053 2.45808 349.927 6.30724C353.826 10.1564 355.9 16.4268 356.148 25.1185C356.322 31.8732 356.446 38.2677 356.521 44.3022C356.62 50.3367 356.67 56.2222 356.67 61.9587C356.67 67.6704 356.62 73.4442 356.521 79.28C356.446 85.1158 356.322 91.2372 356.148 97.6442C355.875 106.286 353.814 112.557 349.965 116.455C346.115 120.329 339.708 122.267 330.744 122.267ZM330.744 119.622C338.591 119.622 344.191 117.883 347.543 114.407C350.921 110.93 352.721 105.305 352.945 97.5325C353.094 91.1503 353.205 85.0662 353.28 79.28C353.379 73.469 353.429 67.7201 353.429 62.0332C353.429 56.3464 353.392 50.4982 353.317 44.4885C353.243 38.454 353.118 32.0346 352.945 25.2302C352.721 17.4077 350.921 11.783 347.543 8.35599C344.166 4.90416 338.566 3.17825 330.744 3.17825C322.698 3.17825 317.011 4.91658 313.683 8.39324C310.355 11.8699 308.605 17.4698 308.431 25.193C308.282 32.2705 308.17 38.8141 308.096 44.8237C308.021 50.8334 307.984 56.632 307.984 62.2195C308.009 67.7822 308.046 73.4317 308.096 79.1682C308.17 84.9047 308.282 91.0386 308.431 97.5697C308.605 105.293 310.355 110.905 313.683 114.407C317.011 117.883 322.698 119.622 330.744 119.622ZM330.744 117.014C323.914 117.014 319.059 115.499 316.179 112.47C313.323 109.415 311.808 104.424 311.634 97.4952C311.485 90.4177 311.374 83.8742 311.299 77.8645C311.249 71.8548 311.225 66.0687 311.225 60.506C311.225 54.9433 311.262 49.3062 311.336 43.5945C311.411 37.8828 311.51 31.7738 311.634 25.2675C311.783 18.3142 313.298 13.3351 316.179 10.3302C319.084 7.30058 323.939 5.78574 330.744 5.78574C337.523 5.78574 342.328 7.33783 345.159 10.442C347.99 13.5213 349.505 18.4756 349.704 25.3047C349.902 32.4567 350.039 39.0376 350.114 45.0472C350.188 51.0569 350.225 56.8307 350.225 62.3685C350.225 67.9063 350.176 73.5187 350.076 79.2055C350.002 84.8675 349.878 90.9392 349.704 97.4207C349.505 104.2 348.003 109.167 345.197 112.321C342.415 115.45 337.598 117.014 330.744 117.014ZM330.744 114.407C336.406 114.407 340.404 113.053 342.738 110.346C345.072 107.64 346.326 103.306 346.5 97.3462C346.674 90.3929 346.798 83.9983 346.873 78.1625C346.972 72.3267 347.022 66.6647 347.022 61.1765C347.022 55.6883 346.972 50.0636 346.873 44.3022C346.798 38.5409 346.674 32.2581 346.5 25.4537C346.326 19.6179 345.11 15.3217 342.85 12.5652C340.615 9.78391 336.579 8.39324 330.744 8.39324C324.982 8.39324 320.922 9.73424 318.563 12.4162C316.228 15.0734 314.999 19.3696 314.875 25.3047C314.726 32.1587 314.614 38.5409 314.54 44.4512C314.465 50.3616 314.428 56.1105 314.428 61.698C314.453 67.2855 314.49 72.9847 314.54 78.7957C314.614 84.5819 314.726 90.7902 314.875 97.4207C314.999 103.53 316.266 107.888 318.675 110.495C321.108 113.103 325.131 114.407 330.744 114.407ZM330.744 111.799C326.125 111.799 322.884 110.669 321.021 108.409C319.159 106.125 318.178 102.449 318.079 97.3835C317.905 87.922 317.781 79.3793 317.706 71.7555C317.656 64.1317 317.669 56.6568 317.743 49.331C317.818 41.9803 317.93 33.9964 318.079 25.3792C318.178 20.2884 319.159 16.6255 321.021 14.3905C322.884 12.1307 326.125 11.0007 330.744 11.0007C335.412 11.0007 338.641 12.1927 340.429 14.5767C342.217 16.9359 343.16 20.5864 343.26 25.5282C343.433 32.6306 343.558 39.1121 343.632 44.9727C343.731 50.8086 343.781 56.4333 343.781 61.847C343.781 67.2607 343.731 72.8233 343.632 78.535C343.558 84.2218 343.433 90.455 343.26 97.2345C343.135 102.251 342.167 105.939 340.354 108.298C338.541 110.632 335.338 111.799 330.744 111.799ZM330.744 109.192C334.22 109.192 336.604 108.211 337.896 106.249C339.212 104.287 339.932 101.257 340.056 97.16C340.23 90.1818 340.354 83.8121 340.429 78.0508C340.528 72.2646 340.578 66.6771 340.578 61.2882C340.578 55.8746 340.528 50.3119 340.429 44.6002C340.354 38.8637 340.23 32.5437 340.056 25.64C339.932 21.319 339.187 18.2397 337.821 16.402C336.48 14.5395 334.121 13.6082 330.744 13.6082C327.366 13.6082 324.97 14.5022 323.554 16.2902C322.139 18.0782 321.394 21.1327 321.319 25.4537C321.145 34.5924 321.021 42.9364 320.947 50.4857C320.872 58.0351 320.872 65.5223 320.947 72.9475C321.021 80.3727 321.145 88.4932 321.319 97.309C321.394 101.456 322.102 104.473 323.443 106.361C324.808 108.248 327.242 109.192 330.744 109.192ZM369.305 121V1.8H393.108C398.596 1.8 403.215 2.52016 406.965 3.96049C410.715 5.40083 413.596 7.88416 415.607 11.4105C417.619 14.912 418.736 19.7545 418.96 25.938C419.158 31.5255 419.258 36.6536 419.258 41.3222C419.258 45.9661 419.158 50.7217 418.96 55.589C418.761 61.0523 417.755 65.3361 415.942 68.4402C414.154 71.5196 411.348 73.8912 407.524 75.555L419.928 121H416.538L403.538 73.916C407.685 72.7737 410.703 70.7746 412.59 67.9187C414.477 65.0381 415.533 60.8909 415.756 55.4772C415.93 50.7589 416.017 46.0282 416.017 41.285C416.042 36.5418 415.955 31.4634 415.756 26.0497C415.558 20.4871 414.564 16.1537 412.776 13.0495C410.988 9.94532 408.443 7.77241 405.14 6.53074C401.862 5.26425 397.851 4.631 393.108 4.631H372.509V121H369.305ZM382.194 121V74.9217H389.532C390.277 74.9217 390.997 74.9217 391.693 74.9217C392.413 74.8969 393.108 74.8845 393.779 74.8845L406.406 121H403.054L391.395 77.7155C391.122 77.7155 390.836 77.7155 390.538 77.7155C390.24 77.7155 389.954 77.7155 389.681 77.7155H385.397V121H382.194ZM375.75 121V7.42474H393.108C397.156 7.42474 400.583 7.97108 403.389 9.06375C406.195 10.1316 408.368 12.0313 409.908 14.763C411.472 17.4698 412.342 21.2693 412.515 26.1615C412.714 31.3268 412.813 36.3183 412.813 41.136C412.838 45.9288 412.739 50.672 412.515 55.3655C412.317 60.4067 411.199 64.1937 409.163 66.7267C407.127 69.2597 403.861 70.9112 399.366 71.681L413.149 121H409.796L396.125 71.979C395.654 72.0287 395.157 72.0659 394.635 72.0907C394.139 72.0907 393.617 72.0907 393.071 72.0907H378.953V121H375.75ZM378.953 69.2597H393.071C398.137 69.2597 402.048 68.3037 404.805 66.3915C407.586 64.4793 409.088 60.7667 409.312 55.2537C409.486 50.5354 409.573 45.8419 409.573 41.1732C409.598 36.4797 409.511 31.5131 409.312 26.2732C409.088 19.9407 407.586 15.6942 404.805 13.5337C402.023 11.3484 398.125 10.2557 393.108 10.2557H378.953V69.2597ZM382.194 66.466V13.0495H393.108C397.131 13.0495 400.248 13.9559 402.458 15.7687C404.693 17.5567 405.897 21.0955 406.071 26.385C406.27 31.3268 406.369 36.1569 406.369 40.8752C406.369 45.5936 406.27 50.3492 406.071 55.142C405.897 59.6368 404.705 62.6541 402.495 64.1937C400.285 65.7086 397.144 66.466 393.071 66.466H382.194ZM385.397 63.635H393.071C396.225 63.635 398.621 63.0638 400.26 61.9215C401.899 60.7543 402.768 58.4697 402.868 55.0675C403.017 49.7283 403.091 44.7865 403.091 40.242C403.091 35.6727 403.017 31.0909 402.868 26.4967C402.744 22.3992 401.887 19.6055 400.297 18.1155C398.708 16.6255 396.312 15.8805 393.108 15.8805H385.397V63.635ZM447.449 121V10.2557H423.832V7.42474H474.232V10.2557H450.69V121H447.449ZM441.005 121V15.8805H423.832V13.0495H444.245V121H441.005ZM453.893 121V13.0495H474.232V15.8805H457.134V121H453.893ZM423.832 4.631V1.8H474.232V4.631H423.832Z" fill="#4875A8"/>
<path d="M33.734 284V135.2H86.837V153.056H53.822V199.742H84.977V217.598H53.822V266.144H86.837V284H33.734ZM99.6695 284V135.2H130.453C141.675 135.2 149.797 137.649 154.819 142.547C159.841 147.383 162.445 155.412 162.631 166.634C162.817 176.864 162.941 186.567 163.003 195.743C163.065 204.919 163.065 214.126 163.003 223.364C162.941 232.54 162.817 242.243 162.631 252.473C162.445 263.695 159.841 271.755 154.819 276.653C149.797 281.551 141.644 284 130.36 284H99.6695ZM119.758 266.144H130.36C134.452 266.144 137.49 265.214 139.474 263.354C141.458 261.432 142.481 258.549 142.543 254.705C142.729 247.141 142.853 239.608 142.915 232.106C142.977 224.542 143.008 217.009 143.008 209.507C143.008 202.005 142.977 194.503 142.915 187.001C142.853 179.437 142.729 171.873 142.543 164.309C142.481 160.527 141.458 157.706 139.474 155.846C137.49 153.986 134.483 153.056 130.453 153.056H119.758V266.144ZM179.228 284V135.2H199.316V284H179.228ZM230.41 284V153.056H209.02V135.2H271.981V153.056H250.591V284H230.41ZM281.673 284V135.2H301.761V284H281.673ZM350.246 285.581C339.086 285.581 331.026 283.225 326.066 278.513C321.168 273.739 318.626 265.834 318.44 254.798C318.254 247.358 318.13 239.856 318.068 232.292C318.006 224.728 317.975 217.164 317.975 209.6C317.975 201.974 318.006 194.41 318.068 186.908C318.13 179.344 318.254 171.811 318.44 164.309C318.626 153.335 321.168 145.492 326.066 140.78C331.026 136.006 339.086 133.619 350.246 133.619C361.406 133.619 369.404 136.006 374.24 140.78C379.138 145.492 381.711 153.335 381.959 164.309C382.207 171.873 382.362 179.437 382.424 187.001C382.548 194.565 382.61 202.129 382.61 209.693C382.61 217.257 382.548 224.821 382.424 232.385C382.362 239.887 382.207 247.358 381.959 254.798C381.711 265.834 379.138 273.739 374.24 278.513C369.404 283.225 361.406 285.581 350.246 285.581ZM350.246 268.934C354.214 268.934 357.128 268.097 358.988 266.423C360.848 264.687 361.809 261.99 361.871 258.332C362.181 250.644 362.367 242.677 362.429 234.431C362.553 226.123 362.615 217.753 362.615 209.321C362.615 200.889 362.553 192.581 362.429 184.397C362.305 176.213 362.119 168.339 361.871 160.775C361.809 157.117 360.817 154.451 358.895 152.777C357.035 151.041 354.152 150.173 350.246 150.173C346.34 150.173 343.426 151.041 341.504 152.777C339.644 154.451 338.652 157.117 338.528 160.775C338.28 168.339 338.063 176.213 337.877 184.397C337.753 192.581 337.691 200.889 337.691 209.321C337.753 217.753 337.846 226.123 337.97 234.431C338.094 242.677 338.28 250.644 338.528 258.332C338.652 261.99 339.644 264.687 341.504 266.423C343.426 268.097 346.34 268.934 350.246 268.934ZM398.65 284V135.2H429.34L439.012 182.444L450.451 266.144H455.008L451.288 193.418L449.8 135.2H469.33V284H437.245L427.015 232.943L417.901 152.963H413.065L416.506 227.642L418.087 284H398.65Z" fill="#4875A8"/>
</svg>
